HIERARCHY
ROOT Hips
{
	OFFSET 0.000000 0.000000 0.000000
	CHANNELS 6 Xposition Yposition Zposition Xrotation Yrotation Zrotation
	JOINT LeftUpLeg_virtual
	{
		OFFSET 0.000000 0.000000 0.000000
		CHANNELS 3 Xrotation Yrotation Zrotation
		JOINT LeftUpLeg
		{
			OFFSET 15.427100 -6.655098 0.678600
			CHANNELS 3 Xrotation Yrotation Zrotation
			JOINT LeftLeg
			{
				OFFSET 4.081073 -39.591068 13.024000
				CHANNELS 3 Xrotation Yrotation Zrotation
				JOINT LeftFoot
				{
					OFFSET -4.081074 -37.707932 -15.979700
					CHANNELS 3 Xrotation Yrotation Zrotation
					JOINT LeftToeBase
					{
						OFFSET 5.346399 -15.068900 20.645000
						CHANNELS 3 Xrotation Yrotation Zrotation
						JOINT LeftToe_End
						{
							OFFSET 2.754700 0.931300 11.300900
							CHANNELS 3 Xrotation Yrotation Zrotation
							End Site
							{
								OFFSET 0 0 0
							}
						}
					}
				}
			}
		}
	}
	JOINT RightUpLeg_virtual
	{
		OFFSET 0.000000 0.000000 0.000000
		CHANNELS 3 Xrotation Yrotation Zrotation
		JOINT RightUpLeg
		{
			OFFSET -15.569500 -6.655098 0.678600
			CHANNELS 3 Xrotation Yrotation Zrotation
			JOINT RightLeg
			{
				OFFSET -4.081825 -39.591045 13.023800
				CHANNELS 3 Xrotation Yrotation Zrotation
				JOINT RightFoot
				{
					OFFSET 4.081824 -37.707954 -15.979600
					CHANNELS 3 Xrotation Yrotation Zrotation
					JOINT RightToeBase
					{
						OFFSET -5.346400 -15.068900 20.645000
						CHANNELS 3 Xrotation Yrotation Zrotation
						JOINT RightToe_End
						{
							OFFSET -2.754700 0.931300 11.300900
							CHANNELS 3 Xrotation Yrotation Zrotation
							End Site
							{
								OFFSET 0 0 0
							}
						}
					}
				}
			}
		}
	}
	JOINT Spine_virtual
	{
		OFFSET 0.000000 0.000000 0.000000
		CHANNELS 3 Xrotation Yrotation Zrotation
		JOINT Spine
		{
			OFFSET -0.279200 12.230698 -2.892100
			CHANNELS 3 Xrotation Yrotation Zrotation
			JOINT Spine1
			{
				OFFSET -0.232667 10.192268 -1.242267
				CHANNELS 3 Xrotation Yrotation Zrotation
				JOINT Spine1_split
				{
					OFFSET -0.232667 10.192268 -1.242267
					CHANNELS 3 Xrotation Yrotation Zrotation
					JOINT Spine2
					{
						OFFSET -0.232667 10.192268 -1.242267
						CHANNELS 3 Xrotation Yrotation Zrotation
						JOINT Neck_virtual
						{
							OFFSET 0.000000 0.000000 0.000000
							CHANNELS 3 Xrotation Yrotation Zrotation
							JOINT Neck
							{
								OFFSET -0.418800 17.814194 8.416900
								CHANNELS 3 Xrotation Yrotation Zrotation
								JOINT Head
								{
									OFFSET 0.000000 7.031097 3.806800
									CHANNELS 3 Xrotation Yrotation Zrotation
									JOINT HeadTop_End
									{
										OFFSET 0.000000 24.646606 12.978600
										CHANNELS 3 Xrotation Yrotation Zrotation
										End Site
										{
											OFFSET 0 0 0
										}
									}
								}
							}
						}
						JOINT LeftShoulder_virtual
						{
							OFFSET 0.000000 0.000000 0.000000
							CHANNELS 3 Xrotation Yrotation Zrotation
							JOINT LeftShoulder
							{
								OFFSET 8.476499 7.247704 -3.868750
								CHANNELS 3 Xrotation Yrotation Zrotation
								JOINT LeftShoulder_split
								{
									OFFSET 8.476499 7.247704 -3.868750
									CHANNELS 3 Xrotation Yrotation Zrotation
									JOINT LeftArm
									{
										OFFSET 9.308998 -2.777710 0.208600
										CHANNELS 3 Xrotation Yrotation Zrotation
										JOINT LeftForeArm
										{
											OFFSET 29.972298 0.000000 0.000000
											CHANNELS 3 Xrotation Yrotation Zrotation
											JOINT LeftHand
											{
												OFFSET 26.026505 0.000000 0.000000
												CHANNELS 3 Xrotation Yrotation Zrotation
												End Site
												{
													OFFSET 0 0 0
												}
											}
										}
									}
								}
							}
						}
						JOINT RightShoulder_virtual
						{
							OFFSET 0.000000 0.000000 0.000000
							CHANNELS 3 Xrotation Yrotation Zrotation
							JOINT RightShoulder
							{
								OFFSET -7.570500 7.247704 -3.868750
								CHANNELS 3 Xrotation Yrotation Zrotation
								JOINT RightShoulder_split
								{
									OFFSET -7.570500 7.247704 -3.868750
									CHANNELS 3 Xrotation Yrotation Zrotation
									JOINT RightArm
									{
										OFFSET -9.308998 -2.777710 0.208500
										CHANNELS 3 Xrotation Yrotation Zrotation
										JOINT RightForeArm
										{
											OFFSET -29.972300 0.000000 0.000000
											CHANNELS 3 Xrotation Yrotation Zrotation
											JOINT RightHand
											{
												OFFSET -26.026505 0.000000 0.000000
												CHANNELS 3 Xrotation Yrotation Zrotation
												End Site
												{
													OFFSET 0 0 0
												}
											}
										}
									}
								}
							}
						}
					}
				}
			}
		}
	}
}
MOTION
Frames: 4
Frame Time: 0.03333333
5.181390 74.296242 33.698196 0.000000 0.000000 0.000000 11.300418 -1.245284 -6.422996 -77.475341 19.583990 15.054495 103.282835 -2.897988 0.082822 1.882285 4.946430 -4.309828 -0.937005 -0.342797 -0.388920 0.000000 0.000000 0.000000 7.366143 -9.388446 -4.903265 -19.438138 -8.846532 7.791676 37.147432 12.944907 2.567446 -28.480630 -4.874207 -8.347836 -16.070776 0.697176 -0.553759 0.000000 0.000000 0.000000 9.415079 -7.844651 -5.715785 8.945612 3.204694 4.200309 5.795205 -0.431039 -1.240550 0.525429 2.067629 -0.811573 0.000000 0.000000 0.000000 3.490863 -0.010109 -1.980555 -0.189534 1.596388 -3.836510 -11.217528 12.230687 0.743324 0.000000 0.000000 0.000000 4.218590 -0.371263 -1.519508 -0.421621 -10.489817 -4.466157 1.080178 4.676103 -1.682884 10.224052 -9.326332 -50.627036 5.887335 -80.031867 6.251875 0.000000 0.000000 0.000000 3.961207 0.210580 -0.710096 3.070029 5.227646 13.649824 8.642761 -0.077236 -3.879832 -0.714932 29.314130 25.263094 165.076916 72.259016 -167.531645 0.000000 0.000000 0.000000 
3.770434 74.722618 44.291344 0.000000 0.000000 0.000000 9.431824 -3.348272 -7.522218 -80.966012 19.597606 18.067654 93.459097 -2.185526 -1.801816 0.929306 3.921222 -6.963913 0.199946 -0.546268 1.121669 0.000000 0.000000 0.000000 6.792936 -11.041604 -5.865331 -13.041101 -7.682920 8.111035 40.133242 12.575115 2.155696 -29.001642 -3.167661 -7.544542 -10.316652 0.922109 -0.516509 0.000000 0.000000 0.000000 9.770296 -6.799216 -6.878079 8.546695 3.916153 4.010951 5.731360 -0.567313 -1.404324 0.895685 2.798112 -0.925501 0.000000 0.000000 0.000000 2.629403 0.185710 -2.037541 -0.163982 1.174112 -3.766283 -11.442856 12.759183 1.733445 0.000000 0.000000 0.000000 3.960848 -0.067862 -1.481764 -0.336098 -7.598149 -4.682575 2.304565 5.803550 -2.350377 17.279398 -7.096170 -50.078684 2.234849 -79.049700 2.256661 0.000000 0.000000 0.000000 3.550652 0.262802 -0.923220 2.876374 4.427367 13.784130 7.000231 -2.993031 -3.077142 -3.374179 25.942696 28.831256 172.123048 70.652194 -174.777888 0.000000 0.000000 0.000000 
2.320171 75.121902 56.276295 0.000000 0.000000 0.000000 6.806613 -5.353349 -8.641759 -80.700625 17.834918 18.636622 80.936936 -1.203533 -3.466423 -2.072933 3.547377 -8.998761 1.107256 -0.835862 1.680220 0.000000 0.000000 0.000000 5.303894 -9.680854 -7.348072 -5.660625 -6.947037 9.409571 43.637276 11.291140 1.195363 -27.439897 -1.199298 -7.359484 -8.550125 1.535657 -0.993267 0.000000 0.000000 0.000000 9.386833 -6.162359 -8.056528 7.964962 5.376041 3.812039 5.580845 -0.319664 -1.340717 0.695197 2.974523 -0.196133 0.000000 0.000000 0.000000 2.250636 0.620747 -1.903440 -0.494623 -0.057300 -3.493354 -11.240354 11.112130 2.506837 0.000000 0.000000 0.000000 3.809041 0.487148 -1.322666 -0.052158 -4.166341 -4.862614 3.178719 5.561615 -2.435563 23.138536 -3.688276 -50.539039 -3.658009 -78.504391 -4.040242 0.000000 0.000000 0.000000 3.332583 0.643477 -1.096965 2.603545 3.705582 14.792614 5.576030 -4.068825 -2.557894 -7.329801 19.105532 33.515619 -179.617596 71.296096 176.744395 0.000000 0.000000 0.000000 
1.456451 74.713058 68.032631 0.000000 0.000000 0.000000 3.267213 -6.080203 -9.363470 -76.068602 15.322235 16.741012 70.294087 0.175614 -4.652396 -6.227048 4.383263 -8.854854 2.189006 -1.114273 0.974866 0.000000 0.000000 0.000000 3.721740 -6.679468 -8.470544 1.025374 -6.908172 11.217434 47.960209 9.337561 0.222505 -23.142626 0.181822 -7.973695 -13.174938 2.321323 -1.888548 0.000000 0.000000 0.000000 6.673080 -5.088148 -8.891227 7.338820 7.127702 3.328116 5.288055 0.249015 -1.195327 0.609449 2.426393 0.555961 0.000000 0.000000 0.000000 2.184260 1.147421 -1.708620 -0.824095 -1.552889 -3.275533 -10.404293 7.635451 2.914232 0.000000 0.000000 0.000000 3.580657 1.130211 -1.197657 0.381668 -1.335487 -5.142845 3.759858 3.472255 -2.904396 25.975226 -0.730170 -51.377345 -9.445553 -77.974068 -10.029490 0.000000 0.000000 0.000000 3.331935 1.138054 -1.329253 2.352651 3.377589 16.531609 4.109588 -2.934198 -2.193457 -9.210904 11.960109 36.972159 -167.084650 76.120928 164.178118 0.000000 0.000000 0.000000 
